# xmcd CD database file
#
# Track frame offsets:
#	150
#	15224
#	36817
#	56992
#	74092
#	93747
#	114159
#	136084
#	143294
#	163177
#
# Disc length: 2429 seconds
#
# Revision: 0
# Processed by: cddbd v1.5.1PL0 Copyright (c) Steve Scherf et al.
# Submitted via: CDex 1.51
#
DISCID=82097b0a
DTITLE=Under Fire - Under Fire
DYEAR=1998
DGENRE=Progressive Rock
TTITLE0=No More Heartaches
TTITLE1=Crazy For Love
TTITLE2=Heart In Pain
TTITLE3=Rolling Down That Road
TTITLE4=Love You One More Time
TTITLE5=Hold Out
TTITLE6=Burning Desire
TTITLE7=Crossfire
TTITLE8=Always On The Run
TTITLE9=When You Feel Lonely
EXTD=YEAR: 1998
EXTT0=
EXTT1=
EXTT2=
EXTT3=
EXTT4=
EXTT5=
EXTT6=
EXTT7=
EXTT8=
EXTT9=
PLAYORDER=
